<svg id="e3DMWGHTq9b1" xmlns="http://www.w3.org/2000/svg" xmlns:xlink="http://www.w3.org/1999/xlink" viewBox="0 0 168 416" shape-rendering="geometricPrecision" text-rendering="geometricPrecision"><g transform="translate(-165.999999-41.999999)"><g transform="translate(93.2775 1.19319)"><g><g><path d="M156.528,202.511c-.378.657-.57,1.37-.634,2.089-.031.69-.09,1.548.283,1.939.334.394,1.202.014,1.135-.608c0-.306-.161-.635-.424-.837-.246-.211-.651-.322-.968-.1.24-.331.757-.317,1.115-.126.365.208.632.585.698,1.027.215.964-1.141,1.827-1.946,1.031-.345-.37-.403-.83-.419-1.222.001-.396.024-.782.11-1.165.154-.76.488-1.508,1.05-2.028Z" fill="#b88321"/></g><g><g><path d="M128.561,202.575c-.337,3.045-.951,5.989-1.452,8.971l-1.57,8.925c-2.288,11.846-3.995,23.792-5.041,35.824-.568,6.009-.98,12.033-1.375,18.057-.417,6.021-.752,12.053-.568,18.065.094,3.004.321,6.003.779,8.964.437,2.964,1.154,5.869,1.975,8.765c1.628,5.786,3.686,11.481,5.062,17.42.694,2.964,1.221,5.983,1.471,9.036.253,3.067.186,6.104.142,9.129-.113,6.057-.519,12.08-.555,18.091-.063,6.008.244,12.012,1.348,17.887c1.066,5.888,2.892,11.641,4.638,17.419c1.76,5.774,3.415,11.636,4.263,17.659.423,3.01.533,6.06.431,9.09-.138,2.998-.477,6.075.588,8.921l-.139.056c-1.187-2.852-.952-6.009-.921-8.99-.006-3.006-.233-6.001-.71-8.965-.971-5.931-2.791-11.68-4.632-17.422-1.83-5.746-3.758-11.508-4.938-17.497-1.232-5.986-1.5-12.111-1.475-18.168.036-6.066.363-12.103.539-18.119.07-3.009.158-6.02-.062-8.975-.217-2.967-.706-5.917-1.363-8.836-1.324-5.84-3.266-11.566-4.799-17.434-.772-2.926-1.451-5.908-1.84-8.929-.41-3.016-.583-6.053-.623-9.084-.091-6.068.44-12.1.863-18.12l1.384-18.065c.515-6.018,1.055-12.037,1.744-18.043.667-6.005,1.602-11.999,2.59-17.951l1.502-8.926c.474-2.975,1.063-5.955,1.436-8.908" fill="#b88321"/></g><g><path d="M154.226,441.564c-.891-3.716-1.071-7.63-.805-11.431.038-.947.059-1.888-.001-2.816-.043-.927-.229-1.826-.416-2.762-.385-1.851-.871-3.682-1.348-5.526-.971-3.671-2.001-7.405-2.485-11.236-.539-3.795-.827-7.622-.991-11.452-.036-.96-.061-1.904-.014-2.912.056-.992.227-1.964.442-2.915.435-1.906,1.105-3.711,1.731-5.508.628-1.796,1.22-3.587,1.534-5.447.318-1.858.403-3.755.342-5.647-.106-3.794-.889-7.538-1.742-11.246-.43-1.855-.852-3.721-1.334-5.558-.477-1.845-.972-3.7-1.273-5.614-.152-.956-.255-1.928-.264-2.911-.002-.991.086-1.959.221-2.919.25-1.927.715-3.81,1.244-5.657c1.058-3.695,2.343-7.271,2.968-10.964.644-3.699.811-7.477.507-11.212-.161-1.867-.418-3.725-.785-5.561-.383-1.908-.625-3.846-.734-5.782-.461-7.794,1.19-15.335,1.656-22.898.586-7.583.758-15.205.546-22.831l.15-.009c.68,7.605.841,15.268.475,22.912-.171,3.824-.569,7.646-.907,11.429-.323,3.786-.627,7.561-.376,11.305.116,1.871.357,3.724.733,5.555.393,1.901.674,3.826.801,5.763.263,3.872.038,7.772-.678,11.581-.69,3.839-2.092,7.445-3.216,11.052-.556,1.808-1.059,3.625-1.373,5.472-.163.922-.28,1.858-.31,2.772-.024.923.04,1.857.154,2.789.235,1.865.666,3.716,1.087,5.577l1.222,5.595c.806,3.729,1.54,7.5,1.746,11.34.095,1.919.024,3.852-.251,5.763-.249,1.919-.789,3.788-1.35,5.612-.559,1.826-1.152,3.631-1.498,5.463-.172.915-.298,1.833-.315,2.749-.017.898.064,1.861.102,2.806.18,3.791.595,7.567,1.055,11.334.419,3.755,1.37,7.414,2.295,11.126.469,1.852.88,3.729,1.206,5.626.154.939.32,1.922.33,2.905.028.979-.029,1.946-.101,2.902-.155,1.912-.344,3.783-.308,5.682.019,1.895.189,3.79.475,5.673l-.147.031Z" fill="#b88321"/></g><g><path d="M133.728,220.783c2.277,1.736,4.173,3.92,5.785,6.277c1.586,2.374,2.903,4.95,3.661,7.712-1.55-2.401-2.993-4.785-4.571-7.097-1.553-2.329-3.226-4.559-4.875-6.892Z" fill="#b88321"/></g><g><path d="M147.718,329.821c-.646.471-1.514.599-2.334.517-.821-.105-1.629-.449-2.295-.953-1.357-1.013-2.197-2.449-2.975-3.802-1.525-2.77-2.607-5.81-2.94-8.945c1.177,2.916,2.394,5.731,3.9,8.412.746,1.346,1.491,2.682,2.556,3.674c1.041.951,2.568,1.599,4.088,1.097Z" fill="#b88321"/></g><g><path d="M137.305,324.355c-.135,1.49-1.174,2.873-2.554,3.58-1.382.704-3.113.734-4.398-.034c1.465.124,2.83-.091,4.023-.7c1.195-.606,2.172-1.586,2.929-2.846Z" fill="#b88321"/></g><g><path d="M144.425,339.6c-.028.968-.332,1.924-.77,2.806-.442.885-1.062,1.679-1.775,2.373-1.439,1.384-3.224,2.332-5.027,3.052l.289-.725c1.457,3.008,2.49,6.226,3.037,9.516l-.739-.038c.639-1.702,1.136-3.466,1.51-5.277-.019,1.85-.291,3.708-.782,5.512l-.374,1.375-.365-1.414c-.818-3.171-1.901-6.253-3.255-9.219l-.239-.523.527-.202c1.755-.673,3.461-1.467,4.899-2.64c1.425-1.16,2.609-2.714,3.064-4.596Z" fill="#b88321"/></g></g><g><g><path d="M164.719,244.314c-.004,1.73-.103,3.45-.152,5.176-.085,1.717-.156,3.453-.44,5.199-.296,1.73-.794,3.543-2.005,5.053-1.189,1.539-3.183,2.337-5.002,2.471-.883.069-1.904.087-2.883-.319-.965-.398-1.718-1.114-2.261-1.883-.545-.776-.935-1.612-1.249-2.445-.327-.825-.577-1.675-.791-2.528-.871-3.422-.981-6.909-.993-10.356.591,3.402,1.098,6.819,2.119,10.034.544,1.581,1.118,3.217,2.059,4.454.469.614,1.025,1.118,1.668,1.367.628.256,1.388.258,2.208.183c1.589-.111,3.059-.707,4.04-1.887c1.028-1.148,1.542-2.759,1.947-4.37.367-1.638.597-3.338.857-5.045.293-1.702.537-3.408.878-5.104Z" fill="#b88321"/></g></g><g><path d="M151.066,307.436c-2.952-8.566-4.889-17.417-6.426-26.302c1.807,8.835,4.012,17.609,7.201,26.022l-.775.28Z" fill="#b88321"/></g><g><path d="M148.716,393.526c-1.13-2.491-1.915-5.117-2.338-7.782.691,2.608,1.73,5.105,3.071,7.404l-.733.378Z" fill="#b88321"/></g><g><path d="M156.957,209.407c.105,1.932.15,3.867.185,5.801.037,1.934.024,3.869.039,5.804-.03,1.935-.036,3.87-.088,5.804-.053,1.934-.114,3.868-.237,5.799-.106-1.937-.15-3.871-.186-5.805-.035-1.934-.025-3.867-.038-5.8.031-1.933.036-3.866.089-5.8.053-1.933.114-3.867.236-5.803Z" fill="#b88321"/></g></g><g><g><path d="M186.191,202.423c.373,2.953.962,5.933,1.436,8.908l1.502,8.926c.989,5.952,1.923,11.946,2.59,17.951.689,6.007,1.229,12.025,1.744,18.043l1.384,18.065c.423,6.021.953,12.053.863,18.12-.04,3.031-.214,6.068-.623,9.084-.389,3.02-1.068,6.003-1.84,8.929-1.533,5.868-3.475,11.594-4.799,17.434-.657,2.919-1.146,5.869-1.363,8.836-.22,2.955-.132,5.966-.062,8.975.176,6.016.503,12.053.539,18.119.025,6.057-.243,12.182-1.475,18.168-1.18,5.989-3.108,11.751-4.938,17.497-1.841,5.742-3.661,11.491-4.632,17.422-.477,2.964-.704,5.959-.71,8.965.031,2.981.266,6.138-.921,8.99l-.139-.056c1.066-2.846.727-5.923.588-8.921-.102-3.031.008-6.08.431-9.09.849-6.022,2.503-11.884,4.263-17.659c1.746-5.779,3.571-11.532,4.638-17.419c1.104-5.875,1.411-11.879,1.348-17.887-.036-6.011-.442-12.034-.555-18.091-.044-3.025-.111-6.061.142-9.129.249-3.054.777-6.072,1.471-9.036c1.376-5.939,3.435-11.634,5.063-17.42.821-2.896,1.538-5.801,1.975-8.765.457-2.961.685-5.96.779-8.964.184-6.012-.151-12.044-.568-18.065-.395-6.025-.807-12.048-1.375-18.057-1.045-12.031-2.753-23.978-5.041-35.824l-1.57-8.925c-.501-2.983-1.115-5.926-1.452-8.971" fill="#b88321"/></g><g><path d="M159.072,441.535c.287-1.883.456-3.778.475-5.673.036-1.9-.153-3.77-.308-5.682-.072-.956-.129-1.923-.101-2.902.011-.983.176-1.966.33-2.905.327-1.897.738-3.774,1.206-5.626.924-3.712,1.876-7.37,2.295-11.126.46-3.768.874-7.543,1.055-11.334.037-.945.119-1.908.102-2.806-.017-.915-.144-1.834-.315-2.749-.346-1.832-.939-3.637-1.498-5.463-.56-1.824-1.101-3.693-1.35-5.612-.275-1.911-.347-3.844-.252-5.763.206-3.84.94-7.611,1.746-11.34l1.222-5.595c.421-1.861.852-3.712,1.087-5.577.114-.931.179-1.865.154-2.789-.03-.915-.147-1.85-.31-2.772-.314-1.847-.816-3.664-1.372-5.472-1.123-3.607-2.526-7.213-3.216-11.052-.715-3.808-.941-7.709-.678-11.581.127-1.937.408-3.862.801-5.763.377-1.831.618-3.685.734-5.555.251-3.743-.053-7.519-.376-11.305-.338-3.783-.737-7.605-.907-11.429-.366-7.644-.205-15.307.475-22.912l.15.009c-.212,7.626-.04,15.247.546,22.831.467,7.563,2.118,15.104,1.656,22.898-.11,1.936-.351,3.875-.734,5.782-.367,1.837-.624,3.694-.785,5.561-.304,3.736-.137,7.513.507,11.212.625,3.693,1.911,7.268,2.968,10.964.528,1.847.994,3.73,1.244,5.657.134.96.223,1.927.221,2.919-.009.984-.112,1.955-.264,2.911-.302,1.914-.796,3.77-1.273,5.614-.482,1.837-.904,3.703-1.334,5.558-.853,3.708-1.636,7.452-1.742,11.246-.061,1.891.024,3.788.342,5.647.314,1.86.906,3.65,1.534,5.447.626,1.797,1.296,3.602,1.731,5.508.215.951.386,1.923.442,2.915.047,1.008.023,1.952-.014,2.912-.164,3.83-.452,7.657-.991,11.452-.484,3.831-1.514,7.565-2.485,11.236-.477,1.843-.964,3.675-1.348,5.526-.187.936-.373,1.834-.416,2.762-.059.927-.039,1.869-.001,2.816.266,3.8.086,7.715-.805,11.431l-.148-.031Z" fill="#b88321"/></g><g><path d="M179.718,220.783c-1.65,2.333-3.323,4.563-4.875,6.892-1.579,2.312-3.021,4.696-4.571,7.097.758-2.762,2.075-5.337,3.661-7.712c1.612-2.357,3.508-4.54,5.785-6.277Z" fill="#b88321"/></g><g><path d="M165.728,329.821c1.519.501,3.047-.146,4.088-1.097c1.064-.992,1.81-2.327,2.556-3.674c1.507-2.681,2.723-5.496,3.9-8.412-.333,3.135-1.415,6.175-2.94,8.945-.777,1.352-1.618,2.789-2.975,3.802-.666.504-1.473.848-2.295.953-.82.083-1.688-.046-2.334-.517Z" fill="#b88321"/></g><g><path d="M176.141,324.355c.758,1.26,1.734,2.239,2.929,2.846c1.193.609,2.558.824,4.023.7-1.284.767-3.016.738-4.398.034-1.381-.707-2.42-2.09-2.554-3.58Z" fill="#b88321"/></g><g><path d="M169.02,339.6c.455,1.881,1.639,3.435,3.063,4.596c1.438,1.173,3.143,1.966,4.899,2.64l.527.202-.239.523c-1.354,2.966-2.437,6.048-3.255,9.219l-.365,1.414-.374-1.375c-.49-1.804-.762-3.661-.782-5.512.374,1.812.871,3.575,1.51,5.277l-.738.038c.547-3.289,1.58-6.507,3.037-9.516l.289.725c-1.804-.72-3.589-1.668-5.027-3.052-.713-.694-1.332-1.488-1.775-2.373-.438-.881-.742-1.838-.77-2.806Z" fill="#b88321"/></g></g><g><path d="M161.604,307.155c3.189-8.413,5.395-17.188,7.201-26.022-1.537,8.885-3.475,17.736-6.426,26.302l-.775-.28Z" fill="#b88321"/></g><g><path d="M163.997,393.149c1.34-2.299,2.379-4.796,3.07-7.404-.422,2.665-1.208,5.291-2.338,7.782l-.732-.378Z" fill="#b88321"/></g></g><g transform="translate(93.2775 1.19319)"><g><g><g><path d="M139.99,431.664c-.23,4.301-1.308,8.552-2.939,12.557-.41,1.001-.867,1.984-1.376,2.94-.487.955-1.111,1.889-1.621,2.771-.502.865-.88,1.846-.623,2.698.264.829,1.375,1.57,2.102,1.022l.261-.197.127.291c.218.5.78.81,1.347.851.568.056,1.161-.17,1.451-.609l.223-.339.256.343c.818,1.098,2.722,1.081,3.475.125l.297-.377.419.359c.789.676,1.711,1.193,2.518,1.119.334-.027.695-.243.914-.53.223-.299.26-.578.162-.752l1.378-.652c.365.692,1.133,1.144,1.983,1.268.857.132,1.736-.064,2.434-.514c1.464-.948,2.332-2.852,2.526-4.759.265-1.93-.301-3.914-.971-5.898-.67-1.98-1.49-4.041-1.594-6.204l.163-.024c.529,2.054,1.545,3.878,2.449,5.82.919,1.916,1.675,4.107,1.559,6.438-.042,1.156-.338,2.296-.833,3.371-.492,1.074-1.296,2.064-2.356,2.737-1.086.708-2.438.896-3.664.661-1.223-.226-2.471-.979-3.059-2.216l1.378-.652c.181.405.206.887.1,1.29-.102.409-.314.746-.562,1.022-.498.542-1.184.899-1.956.915-.704.006-1.362-.226-1.889-.556-.534-.329-.976-.731-1.376-1.149l.715-.018c-.694.663-1.648.891-2.505.791-.863-.095-1.693-.547-2.185-1.277l.479.004c-.478.624-1.274.844-1.974.774-.702-.07-1.423-.455-1.764-1.141l.387.095c-.521.414-1.267.374-1.801.111-.556-.258-.983-.714-1.27-1.268-.516-1.206-.117-2.45.309-3.453.911-1.987,1.776-3.853,2.613-5.803c1.678-3.869,2.983-7.883,4.133-12.013l.16.028Z" fill="#b88321"/></g><g><path d="M147.402,454.74c-.197-.669-.328-1.407-.226-2.155.107-.747.421-1.372.722-1.943.305-.576.61-1.111.764-1.712.157-.589.178-1.253-.152-1.818.429.495.549,1.214.491,1.874-.049.673-.278,1.319-.47,1.921-.196.606-.352,1.198-.327,1.739.025.538.216,1.074.479,1.597l-1.281.497Z" fill="#b88321"/></g><g><path d="M142.665,454.576c.011-.306.022-.633.09-.964.061-.331.211-.665.405-.923.388-.52.882-.855,1.177-1.392-.165.59-.601,1.084-.821,1.6-.233.509-.146,1.029-.03,1.615l-.821.064Z" fill="#b88321"/></g><g><path d="M138.697,454.312c-.062-.735.248-1.367.583-1.901.342-.538.739-1.017.99-1.596-.163.609-.497,1.164-.748,1.726-.25.555-.415,1.163-.283,1.685l-.542.086Z" fill="#b88321"/></g><g><path d="M135.535,453.963c-.027-.382.038-.766.183-1.113.134-.361.408-.621.63-.909.477-.54.973-1.071,1.263-1.738-.246.684-.718,1.26-1.157,1.825-.198.294-.446.561-.544.895-.112.326-.148.676-.102,1.012l-.273.028Z" fill="#b88321"/></g><g><path d="M148.473,451.813c.557-.33,1.205-.489,1.854-.551.652-.062,1.308-.004,1.944.119l-.305.167c.071-.158.025-.387-.097-.564-.122-.179-.34-.31-.582-.404-.499-.171-1.078-.168-1.639.007.465-.371,1.116-.523,1.744-.403.315.055.642.203.88.487.233.278.344.687.2,1.078l-.077.21-.228-.043c-.606-.115-1.216-.191-1.83-.221-.613-.03-1.23.013-1.864.118Z" fill="#b88321"/></g></g></g><g><g><path d="M173.619,431.638c1.15,4.13,2.454,8.144,4.133,12.013.837,1.95,1.701,3.816,2.613,5.803.426,1.003.824,2.248.309,3.453-.287.554-.714,1.009-1.27,1.268-.534.262-1.279.303-1.801-.111l.387-.095c-.34.687-1.061,1.071-1.764,1.141-.7.07-1.496-.151-1.974-.774l.479-.004c-.492.73-1.322,1.182-2.185,1.277-.857.1-1.811-.127-2.505-.791l.715.018c-.399.418-.842.82-1.375,1.149-.528.33-1.186.562-1.889.556-.773-.016-1.458-.372-1.956-.915-.247-.276-.46-.613-.561-1.022-.106-.403-.081-.885.1-1.29l1.378.652c-.588,1.237-1.836,1.991-3.059,2.216-1.226.234-2.579.047-3.664-.661-1.06-.674-1.865-1.663-2.356-2.737-.495-1.075-.791-2.215-.833-3.371-.116-2.331.64-4.522,1.559-6.438.904-1.942,1.921-3.766,2.449-5.82l.163.024c-.105,2.163-.924,4.225-1.595,6.204-.669,1.983-1.235,3.968-.97,5.898.194,1.907,1.062,3.812,2.526,4.759.698.449,1.577.646,2.434.514.849-.125,1.617-.576,1.982-1.268l1.378.652c-.098.174-.061.452.162.752.218.287.58.503.914.53.806.074,1.728-.443,2.518-1.119l.419-.359.297.377c.753.956,2.657.973,3.475-.125l.256-.343.223.339c.29.44.883.665,1.451.609.567-.041,1.129-.351,1.347-.851l.127-.291.261.197c.727.548,1.838-.193,2.102-1.022.258-.852-.121-1.833-.623-2.698-.511-.883-1.134-1.816-1.621-2.771-.508-.955-.965-1.938-1.376-2.94-1.631-4.006-2.709-8.256-2.939-12.557l.159-.028Z" fill="#b88321"/></g><g><path d="M164.762,454.245c.263-.523.454-1.059.479-1.597.026-.54-.13-1.133-.327-1.739-.192-.603-.421-1.249-.47-1.921-.058-.66.062-1.379.491-1.874-.331.565-.31,1.228-.152,1.818.154.6.459,1.136.764,1.712.301.57.615,1.196.722,1.943.102.748-.029,1.486-.227,2.155l-1.28-.497Z" fill="#b88321"/></g><g><path d="M169.96,454.511c.116-.586.203-1.106-.03-1.615-.22-.516-.656-1.01-.821-1.6.294.537.789.872,1.177,1.392.195.259.344.593.405.923.068.331.08.658.09.964l-.821-.064Z" fill="#b88321"/></g><g><path d="M174.206,454.227c.132-.522-.033-1.13-.283-1.685-.251-.562-.585-1.117-.748-1.726.251.579.648,1.058.99,1.596.335.534.646,1.165.584,1.901l-.543-.086Z" fill="#b88321"/></g><g><path d="M177.637,453.934c.046-.336.01-.686-.102-1.012-.098-.334-.346-.601-.544-.895-.439-.565-.911-1.141-1.157-1.825.29.667.786,1.198,1.263,1.738.222.288.496.548.63.909.145.348.21.731.183,1.113l-.273-.028Z" fill="#b88321"/></g><g><path d="M164.972,451.813c-.633-.105-1.251-.148-1.865-.118-.614.031-1.223.106-1.83.221l-.228.043-.077-.21c-.144-.391-.033-.8.2-1.078.238-.284.565-.433.881-.487.628-.12,1.278.032,1.744.403-.561-.175-1.14-.178-1.639-.007-.242.093-.46.225-.582.404-.122.176-.168.406-.097.564l-.305-.167c.636-.123,1.292-.182,1.944-.119.649.062,1.298.221,1.854.551Z" fill="#b88321"/></g></g></g><g transform="translate(93.2775 1.19319)"><g><g><path d="M142.948,92.157c.259,1.648.407,3.311.497,4.978.091,1.667.082,3.338.046,5.007-.082,1.668-.195,3.337-.421,4.992-.227,1.655-.529,3.301-.979,4.908.226-1.652.421-3.301.559-4.954.137-1.653.254-3.307.292-4.966.082-1.657.082-3.316.082-4.976-.001-1.661-.043-3.322-.076-4.989Z" fill="#b88321"/></g><g><path d="M156.528,202.511c-.378.657-.57,1.37-.634,2.089-.031.69-.09,1.548.283,1.939.334.394,1.202.014,1.135-.608c0-.306-.161-.635-.424-.837-.246-.211-.651-.322-.968-.1.24-.331.757-.317,1.115-.126.365.208.632.585.698,1.027.215.964-1.141,1.827-1.946,1.031-.345-.37-.403-.83-.419-1.222.001-.396.024-.782.11-1.165.154-.76.488-1.508,1.05-2.028Z" fill="#b88321"/></g><g><g><g><path d="M143.249,98.845c-.609,2.128-2.156,3.843-3.873,5.158-1.73,1.342-3.702,2.301-5.576,3.363-1.902,1.05-3.646,2.244-5.126,3.864-.404.381-.972.723-1.573.779-.589.065-1.113.032-1.657.046-1.082.007-2.161.023-3.236.072-2.143.108-4.291.34-6.319.959-2.033.608-3.93,1.631-5.633,2.894-3.421,2.543-5.946,6.16-7.46,10.135-1.54,3.989-2.093,8.282-2.07,12.573-.004,2.148.102,4.302.224,6.461l.176,3.256c.039,1.11-.004,2.22-.109,3.319-.432,4.419-1.816,8.557-2.456,12.792-.699,4.237-1.035,8.533-1.003,12.823-.012,2.158-.116,4.354-.171,6.529l-.107,3.271c-.074,1.109-.245,2.22-.462,3.305-.887,4.352-2.584,8.366-3.374,12.54-.822,4.189-1.17,8.496-1.373,12.796-.194,4.309-.196,8.616-.104,12.947.06,4.335-.023,8.797-1.268,13.105-.638,2.139-1.588,4.21-2.885,6.053-1.31,1.874-2.939,3.325-4.189,4.994-.637.832-1.144,1.688-1.564,2.654-.43.96-.812,1.993-1.347,3.006-1.057,2.019-2.733,3.755-4.602,4.935-.878.592-1.514,1.216-1.499,1.999.006.381.131.625.389.763.272.155.819.22,1.296.245c1.957.095,3.97-.773,5.236-2.265l1.717-2.025-.6,2.581c-.737,3.172-1.469,6.336-2.002,9.525-.266,1.594-.482,3.194-.623,4.797-.073.802-.123,1.605-.15,2.408-.02.401-.022.803-.026,1.204-.006.408-.015.8.045,1.102.058.309.178.49.338.569.163.09.446.097.704-.006.502-.168.858-.786,1.071-1.504.432-1.509.773-3.118,1.104-4.701l.984-4.79c.173-.801.35-1.601.556-2.404.228-.81.4-1.589.876-2.457l1.178-2.15-.155,2.48-.625,10.006-.312,5.003-.078,1.251c-.026.396-.023.78.023,1.152.087.756.411,1.368.931,1.401.244.03.54-.074.784-.272.245-.192.422-.467.556-.804.26-.663.343-1.524.468-2.329.214-1.634.32-3.292.43-4.96.218-3.321.482-6.773,1.825-9.971l.564-1.343.328,1.394c.2.85.215,1.587.257,2.36.026.763.039,1.523.036,2.281-.001,1.516-.037,3.029-.086,4.54-.05,1.511-.115,3.021-.194,4.53-.032.761-.121,1.508,0,2.153.103.651.495,1.104,1.032,1.076.545-.017,1.128-.439,1.366-1.001.276-.584.325-1.303.347-2.043.04-1.508.103-3.023.19-4.533.174-3.021.445-6.036.81-9.04l.041-.334.347-.02c.254-.015.547.097.728.272.187.172.292.37.367.557.145.379.188.743.188,1.113l-.024,1.964-.048,3.926-.024,1.963c.006.652-.061,1.334.069,1.857.101.512.58.918.946.803.377-.077.643-.685.75-1.271l2.363-15.507c.434-2.572.521-5.163.403-7.769-.087-2.61-.4-5.201-.383-7.858.054-2.646.481-5.268,1.134-7.817.643-2.559,1.56-5.02,2.363-7.506c1.637-4.971,3.24-9.954,4.774-14.957.764-2.503,1.504-5.011,2.165-7.54.33-1.263.619-2.533.757-3.823.137-1.29.137-2.596.109-3.901-.036-2.607-.369-5.224-.158-7.86.231-2.641,1.094-5.151,1.968-7.614.895-2.463,1.88-4.889,2.75-7.354.86-2.463,1.659-4.977,1.872-7.58l.15.009c-.202,2.632-.992,5.16-1.841,7.634-.859,2.476-1.831,4.908-2.711,7.37-.86,2.461-1.702,4.963-1.914,7.556-.194,2.596.15,5.207.201,7.831.035,1.311.043,2.629-.09,3.944-.133,1.316-.421,2.607-.745,3.877-.65,2.54-1.378,5.058-2.129,7.566-1.508,5.016-3.085,10.009-4.697,14.992-.793,2.499-1.693,4.958-2.313,7.484-.633,2.523-1.037,5.106-1.076,7.697-.005,2.581.322,5.202.424,7.823.135,2.621.057,5.291-.367,7.888l-2.287,15.558c-.068.342-.162.69-.34,1.032-.172.332-.484.701-.946.82-.456.129-.944-.047-1.248-.317-.319-.263-.53-.654-.618-1.021-.176-.758-.086-1.403-.101-2.055l.016-1.963.032-3.926.016-1.962c.028-.561-.242-1.219-.464-1.133l.387-.354c-.351,2.988-.609,5.987-.769,8.991-.081,1.503-.136,3.003-.171,4.511-.024.757-.053,1.587-.419,2.384-.366.811-1.151,1.46-2.128,1.511-.492.026-1.013-.191-1.345-.554-.348-.364-.501-.82-.581-1.234-.153-.848-.047-1.62-.024-2.362l.175-4.514c.043-1.504.072-3.009.067-4.51-.021-1.473-.001-3.064-.273-4.376l.892.051c-1.254,3.01-1.511,6.346-1.712,9.665-.104,1.666-.203,3.346-.417,5.027-.133.84-.183,1.667-.521,2.573-.316.877-1.185,1.82-2.396,1.724-.579-.053-1.124-.434-1.395-.898-.285-.458-.392-.935-.458-1.392-.059-.457-.062-.912-.035-1.35l.073-1.251.292-5.004.585-10.008l1.023.329c-.309.565-.531,1.387-.73,2.144-.196.776-.368,1.567-.536,2.359l-.963,4.788c-.331,1.606-.655,3.19-1.114,4.815-.246.798-.683,1.835-1.766,2.259-.495.19-1.098.241-1.668-.043-.588-.289-.881-.913-.962-1.395-.094-.501-.072-.929-.071-1.334.003-.413.003-.826.022-1.238.025-.825.071-1.649.142-2.47.135-1.642.348-3.275.61-4.895.525-3.242,1.248-6.435,1.969-9.612l1.118.557c-1.538,1.82-3.899,2.849-6.275,2.755-.593-.045-1.162-.049-1.864-.391-.34-.174-.665-.486-.842-.842-.184-.355-.26-.736-.257-1.093-.001-.705.272-1.403.702-1.914.412-.509.903-.87,1.358-1.191c1.785-1.146,3.192-2.649,4.151-4.473.475-.906.843-1.91,1.292-2.929.436-1.024,1.034-2.049,1.712-2.938c1.347-1.802,2.974-3.277,4.134-4.975c1.188-1.707,2.059-3.626,2.649-5.638c1.166-4.048,1.267-8.368,1.202-12.666-.093-4.33-.093-8.69.102-13.036.205-4.348.551-8.704,1.397-13.021.832-4.352,2.536-8.396,3.371-12.545.207-1.039.366-2.072.436-3.125l.121-3.222c.074-2.153.199-4.285.232-6.458.01-4.372.394-8.741,1.146-13.045.702-4.327,2.122-8.47,2.568-12.692.111-1.055.162-2.113.135-3.168l-.144-3.233c-.101-2.166-.188-4.342-.163-6.525.018-4.358.627-8.801,2.258-12.9c1.603-4.093,4.265-7.833,7.844-10.44c1.783-1.296,3.768-2.341,5.896-2.956c2.128-.629,4.328-.84,6.506-.901c1.09-.029,2.177-.024,3.261-.01.537-.002,1.1.036,1.589-.011.491-.041.903-.278,1.295-.622.382-.341.763-.75,1.18-1.113.416-.363.85-.7,1.298-1.018.899-.629,1.845-1.177,2.801-1.691c1.909-1.033,3.876-1.946,5.603-3.234c1.716-1.264,3.258-2.91,3.894-4.982l.148.05Z" fill="#b88321"/></g><g><path d="M82.139,263.695c.654-1.212,1.631-2.289,2.82-3.054.591-.356,1.201-.683,1.804-1.025.608-.329,1.191-.627,1.745-.99c1.115-.688,2.126-1.539,2.793-2.624.648-1.087,1.01-2.43.642-3.77.738,1.195.662,2.83.027,4.125-.628,1.34-1.759,2.339-2.946,3.09-1.227.741-2.451,1.271-3.677,1.84-1.17.61-2.248,1.419-3.208,2.408Z" fill="#b88321"/></g><g><path d="M86.888,266.345c.721.135,1.393.226,2.074.28.68.044,1.359.076,2.05.088.697.039,1.373.019,2.127.141.732.124,1.42.377,2.054.742-.734.026-1.432-.01-2.108.014-.654.036-1.39.095-2.102.073-.718-.031-1.449-.108-2.157-.315-.707-.202-1.395-.526-1.938-1.023Z" fill="#b88321"/></g></g><g><path d="M127.253,202.422c.744-5.896.536-12.033-1.874-17.472-2.332-5.465-6.211-10.269-8.469-15.986-.542-1.43-1.007-2.895-1.291-4.402-.286-1.497-.476-3.004-.615-4.514-.275-3.021-.32-6.045-.368-9.063l.152-.005c.162,3.014.322,6.031.708,9.014.194,1.49.439,2.974.775,4.432.342,1.449.805,2.865,1.368,4.243c2.294,5.523,6.314,10.177,8.795,15.821c1.272,2.807,2.003,5.859,2.295,8.914.3,3.063.176,6.141-.168,9.171" fill="#b88321"/></g><g><path d="M95.187,246.69c.15-1.348.359-2.684.577-4.018.217-1.335.482-2.66.721-3.99.282-1.322.541-2.648.846-3.965s.618-2.633.991-3.937c-.149,1.348-.358,2.684-.576,4.018s-.482,2.66-.722,3.99c-.284,1.321-.541,2.648-.846,3.965-.306,1.318-.619,2.633-.991,3.937Z" fill="#b88321"/></g><g><path d="M96.227,246.244c-.017-.492.025-.969.075-1.443.044-.475.13-.941.217-1.407.099-.463.2-.926.342-1.382.137-.457.282-.913.488-1.36.019.485-.022.961-.073,1.436-.045.476-.131.945-.219,1.414-.101.466-.201.932-.344,1.389-.137.457-.282.913-.486,1.353Z" fill="#b88321"/></g><g><path d="M124.528,154.279c-.396.028-.784.054-1.164.131-.38.06-.764.132-1.047.315-.616.354-.213,1.074.475,1.275.69.258,1.451.45,2.124.272.335-.081.617-.305.79-.621.184-.303.225-.712-.006-1.045.336.245.396.755.257,1.155-.143.403-.484.757-.899.917-.842.331-1.711.11-2.471-.158-.381-.151-.833-.42-1.014-.902-.089-.23-.104-.521.013-.767.109-.248.323-.412.527-.504.839-.327,1.637-.217,2.415-.068Z" fill="#b88321"/></g><g><path d="M123.508,155.439c.202.112.441.149.656.077.246-.041.271-.185.155-.256-.126-.105-.359-.201-.55-.206-.104.005-.22.027-.303.097-.091.077-.043.212.042.288Zm0,0c-.09-.061-.169-.207-.073-.314.076-.1.187-.166.307-.208.263-.079.514-.034.757.129.127.084.192.338.083.474-.132.162-.289.144-.404.135-.247-.01-.479-.091-.67-.216Z" fill="#b88321"/></g></g><g><g><path d="M184.43,112.914c-4.486,1.46-9.221,2.01-13.909,2.347l-7.035.472c-.586.043-1.152.084-1.65.252-.504.158-.879.476-1.254.911-.379.421-.737.931-1.315,1.315-.589.389-1.275.451-1.812.555l-.034.007h-.038l-.281.001h-.037l-.035-.007c-.537-.104-1.223-.165-1.813-.555-.578-.384-.937-.894-1.315-1.315-.375-.436-.75-.753-1.254-.911-.498-.168-1.064-.209-1.65-.252-2.339-.181-4.687-.28-7.035-.471-2.347-.178-4.697-.395-7.03-.748-2.328-.371-4.641-.874-6.879-1.601c2.286.557,4.596.981,6.929,1.224c2.329.273,4.67.424,7.016.529c2.346.097,4.695.214,7.048.361.583.039,1.204.069,1.828.269.635.183,1.195.653,1.581,1.106.403.45.755.907,1.17,1.169.408.27.937.325,1.545.431l-.071-.007.281.001-.071.007c.609-.106,1.137-.16,1.546-.431.416-.262.768-.72,1.17-1.169.386-.453.946-.923,1.581-1.106.624-.2,1.245-.23,1.828-.269c2.352-.148,4.702-.263,7.048-.36c2.346-.105,4.687-.257,7.016-.529c2.335-.244,4.645-.668,6.931-1.226Z" fill="#b88321"/></g></g><g><path d="M147.854,101.929c1.578,4.581,3.37,9.083,5.366,13.484l-.76.319c-1.753-4.531-3.29-9.139-4.606-13.803Z" fill="#b88321"/></g><g><path d="M160.624,115.791c1.505-3.385,2.662-6.94,3.442-10.591-.509,3.698-1.406,7.357-2.677,10.898l-.765-.307Z" fill="#b88321"/></g><g><path d="M155.979,105.779c-.116.622.036,1.224.39,1.658.35.436.858.729,1.397.806l.485.069-.309.371c-.181.217-.355.441-.543.653-.205.248-.343.349-.352.578-.033.566-.079,1.133-.178,1.7-.117-.564-.18-1.129-.23-1.694-.07-.371.223-.713.361-.902.164-.231.344-.45.515-.675l.176.44c-.694-.092-1.335-.506-1.683-1.103-.358-.59-.377-1.362-.029-1.901Z" fill="#b88321"/></g><g><path d="M157.44,130.832c.533,4.639.728,9.311.839,13.977-.001,2.331-.075,4.7-.512,7.035-.419,2.325-1.269,4.632-2.714,6.486c1.07-2.088,1.582-4.348,1.85-6.617.249-2.278.275-4.584.257-6.908-.076-4.651-.067-9.296.28-13.973Z" fill="#b88321"/></g><g><path d="M157.907,149.285c.105,3.311,1.334,6.62,3.453,9.283-2.329-2.48-3.891-5.743-4.29-9.221l.837-.062Z" fill="#b88321"/></g><g><path d="M135.843,117.701c-1.254-.449-2.542-.657-3.838-.735-1.298-.063-2.604-.045-3.924-.022l.174-.778c1.043.505,2.027,1.133,2.909,1.879l.508.43-.613.192c-.773.242-1.534.557-2.237.989-.708.422-1.379.921-2.002,1.499.466-.709,1.06-1.347,1.742-1.878.687-.522,1.442-.977,2.262-1.288l-.105.622c-.889-.652-1.831-1.228-2.82-1.706l-1.609-.776l1.783-.002c1.322-.001,2.667.004,3.999.227c1.326.205,2.659.6,3.771,1.347Z" fill="#b88321"/></g><g><path d="M180.814,117.836c.848-.398,1.751-.69,2.678-.871.925-.193,1.875-.277,2.824-.257l.7.015-.538.453-1.374,1.157-.148-.478c1.058.11,2.134.233,3.174.548c1.036.298,2.054.787,2.801,1.563-1.782-1.228-3.933-1.375-6.026-1.571l-.65-.061.502-.417l1.382-1.147.161.468c-.915-.041-1.834-.009-2.75.088-.916.108-1.828.278-2.736.51Z" fill="#b88321"/></g><g><path d="M125.838,166.241c.391.521.754,1.07,1.237,1.414.248.167.49.277.785.32.29.037.738.149,1.01.443.529.58.62,1.239.981,1.699.353.48.88.849,1.499,1.053-.661.023-1.337-.275-1.821-.778-.512-.512-.669-1.221-1.048-1.585-.177-.194-.391-.252-.73-.324-.338-.079-.7-.251-.945-.503-.513-.494-.774-1.117-.968-1.739Z" fill="#b88321"/></g><g><path d="M157.185,182.18c.12,1.463.167,2.927.193,4.392.027,1.465-.007,2.929-.026,4.394-.063,1.463-.115,2.927-.225,4.388s-.241,2.92-.445,4.373c-.024-1.467.001-2.93.022-4.392l.099-4.384.153-4.383c.063-1.463.122-2.925.229-4.388Z" fill="#b88321"/></g><g><path d="M105.492,193.108c-.312.719-.667,1.408-1.065,2.066-.389.667-.815,1.292-1.188,1.939-.761,1.282-1.425,2.579-1.402,4.154-.331-.715-.388-1.573-.212-2.364.164-.796.508-1.533.906-2.212.839-1.342,1.824-2.501,2.961-3.583Z" fill="#b88321"/></g><g><path d="M94.848,253.078c.067-.181.191-.307.33-.411.137-.11.303-.167.47-.207.169-.027.344-.037.513.013.168.044.331.114.46.257-.173.082-.319.122-.46.166-.14.05-.274.071-.408.103-.136.02-.268.051-.417.057-.147.013-.298.031-.488.022Z" fill="#b88321"/></g></g><g><path d="M113.354,137.42c.04,1.247.047,2.488.133,3.725.056,1.236.145,2.469.318,3.687.337,2.43.86,4.84,1.878,7.038.972,2.212,2.473,4.165,4.305,5.758c1.843,1.584,4.051,2.757,6.454,3.418-1.243-.127-2.461-.476-3.638-.935-1.161-.498-2.262-1.143-3.283-1.902-2.036-1.529-3.673-3.606-4.72-5.939-1.053-2.334-1.567-4.857-1.734-7.363-.177-2.512-.046-5.017.287-7.487Z" fill="#b88321"/></g><g><path d="M112.057,188.758c-1.006,1.181-2.41,1.993-3.897,2.458-1.491.449-3.111.562-4.605.145c1.531-.179,2.977-.422,4.385-.862c1.415-.422,2.75-1.03,4.117-1.741Z" fill="#b88321"/></g><g><path d="M127.078,173.729c.444.651.92,1.193,1.494,1.641.568.456,1.204.795,1.939,1.079-.792.109-1.616-.191-2.249-.688-.627-.504-1.108-1.237-1.184-2.032Z" fill="#b88321"/></g><g><path d="M170.498,92.157c-.033,1.667-.075,3.329-.077,4.989c0,1.66,0,3.32.082,4.976.038,1.658.155,3.313.293,4.966s.333,3.302.559,4.954c-.45-1.607-.752-3.254-.979-4.908-.226-1.656-.339-3.324-.421-4.992-.037-1.67-.045-3.34.046-5.007.089-1.667.238-3.33.497-4.978Z" fill="#b88321"/></g><g><g><g><path d="M170.341,98.802c.636,2.072,2.178,3.718,3.894,4.982c1.727,1.288,3.694,2.2,5.603,3.234.957.514,1.902,1.062,2.801,1.691.447.317.882.655,1.298,1.018s.797.772,1.18,1.113c.391.344.804.581,1.295.622.489.047,1.052.008,1.589.011c1.084-.013,2.171-.018,3.261.01c2.177.061,4.378.273,6.506.901c2.128.615,4.112,1.66,5.896,2.956c3.58,2.607,6.242,6.347,7.844,10.44c1.631,4.099,2.241,8.541,2.258,12.9.025,2.184-.061,4.36-.163,6.525l-.144,3.233c-.026,1.055.024,2.113.135,3.168.446,4.222,1.866,8.365,2.568,12.692.753,4.303,1.137,8.672,1.147,13.045.032,2.173.158,4.305.232,6.458l.121,3.222c.07,1.052.229,2.086.436,3.125.835,4.149,2.539,8.193,3.372,12.545.845,4.317,1.192,8.673,1.397,13.021.196,4.346.195,8.707.102,13.036-.065,4.298.036,8.619,1.203,12.666.59,2.012,1.461,3.93,2.649,5.638c1.16,1.697,2.787,3.172,4.134,4.975.678.889,1.276,1.913,1.712,2.938.449,1.019.817,2.023,1.292,2.929.959,1.823,2.366,3.327,4.151,4.473.454.322.946.682,1.358,1.191.43.511.703,1.208.702,1.914.003.357-.073.737-.257,1.093-.178.356-.503.668-.842.842-.702.342-1.271.346-1.864.391-2.375.094-4.737-.935-6.275-2.755l1.117-.557c.721,3.177,1.444,6.37,1.969,9.612.262,1.621.475,3.253.61,4.895.071.821.117,1.645.142,2.47.019.412.019.825.022,1.238c0,.405.022.833-.071,1.334-.081.482-.374,1.105-.962,1.395-.57.285-1.173.233-1.668.043-1.083-.424-1.52-1.461-1.766-2.259-.459-1.625-.782-3.209-1.114-4.815l-.963-4.788c-.168-.792-.34-1.583-.536-2.359-.199-.757-.421-1.579-.73-2.144l1.023-.329.585,10.008.292,5.004.073,1.251c.027.438.024.892-.035,1.35-.066.457-.173.934-.458,1.392-.27.464-.815.845-1.395.898-1.211.096-2.08-.848-2.396-1.724-.337-.906-.388-1.733-.521-2.573-.214-1.681-.313-3.362-.417-5.027-.201-3.319-.458-6.655-1.712-9.665l.892-.051c-.272,1.312-.251,2.903-.273,4.376-.005,1.501.024,3.005.067,4.51l.175,4.514c.023.741.13,1.514-.024,2.362-.08.414-.234.87-.581,1.234-.332.363-.853.58-1.345.554-.977-.051-1.762-.7-2.128-1.511-.366-.797-.394-1.627-.419-2.384-.034-1.508-.09-3.008-.171-4.511-.161-3.004-.419-6.003-.77-8.991l.387.354c-.222-.086-.492.572-.464,1.133l.016,1.962.032,3.926.016,1.963c-.016.652.075,1.297-.101,2.055-.088.367-.299.759-.618,1.021-.305.27-.793.446-1.248.317-.463-.119-.775-.488-.946-.82-.178-.342-.272-.69-.34-1.032l-2.287-15.558c-.424-2.596-.502-5.267-.367-7.888.102-2.621.429-5.242.424-7.823-.039-2.591-.444-5.174-1.076-7.697-.62-2.526-1.52-4.985-2.313-7.484-1.612-4.983-3.188-9.976-4.697-14.992-.751-2.508-1.479-5.027-2.129-7.566-.325-1.27-.612-2.562-.745-3.877s-.125-2.633-.09-3.944c.051-2.624.396-5.234.201-7.831-.212-2.593-1.053-5.095-1.914-7.556-.88-2.462-1.852-4.894-2.711-7.37-.848-2.473-1.639-5.002-1.841-7.634l.15-.009c.213,2.603,1.013,5.117,1.872,7.58.87,2.466,1.855,4.892,2.75,7.354.875,2.463,1.737,4.973,1.969,7.614.21,2.636-.123,5.253-.158,7.86-.028,1.305-.028,2.611.109,3.901.138,1.29.427,2.56.757,3.823.662,2.529,1.401,5.037,2.165,7.54c1.534,5.003,3.137,9.986,4.774,14.957.803,2.486,1.72,4.947,2.363,7.506.654,2.549,1.08,5.17,1.134,7.817.017,2.658-.296,5.248-.383,7.858-.118,2.606-.031,5.197.403,7.769l2.363,15.507c.108.586.373,1.194.75,1.271.366.115.845-.292.946-.803.131-.524.064-1.205.069-1.857l-.024-1.963-.048-3.926-.024-1.964c0-.37.043-.735.188-1.113.076-.187.181-.385.367-.557.181-.175.474-.287.728-.272l.347.02.041.334c.365,3.004.636,6.019.81,9.04.087,1.51.15,3.025.19,4.533.022.74.071,1.459.347,2.043.239.562.821.984,1.366,1.001.537.028.929-.425,1.032-1.076.121-.645.033-1.391,0-2.153-.079-1.509-.144-3.019-.194-4.53-.049-1.511-.084-3.023-.086-4.54-.003-.758.01-1.518.036-2.281.042-.773.057-1.51.257-2.36l.328-1.394.564,1.343c1.344,3.197,1.607,6.649,1.825,9.971.11,1.668.216,3.326.43,4.96.125.805.208,1.667.468,2.329.135.337.311.612.556.804.243.198.54.302.784.272.52-.033.844-.645.931-1.401.046-.372.05-.756.024-1.152l-.078-1.251-.313-5.003-.625-10.006-.155-2.48l1.178,2.15c.476.868.647,1.647.876,2.457.206.802.383,1.603.556,2.404l.984,4.79c.332,1.582.672,3.192,1.104,4.701.214.718.569,1.336,1.071,1.504.258.103.541.095.704.006.16-.079.28-.26.338-.569.06-.302.05-.694.045-1.102-.005-.401-.006-.803-.026-1.204-.027-.803-.077-1.606-.15-2.408-.14-1.604-.357-3.203-.623-4.797-.533-3.189-1.265-6.352-2.002-9.525l-.6-2.581l1.717,2.025c1.266,1.492,3.279,2.36,5.236,2.265.477-.024,1.024-.09,1.296-.245.259-.138.383-.382.389-.763.015-.783-.621-1.408-1.499-1.999-1.869-1.18-3.546-2.915-4.602-4.935-.535-1.013-.917-2.046-1.347-3.006-.42-.966-.928-1.821-1.564-2.654-1.25-1.669-2.879-3.12-4.189-4.994-1.298-1.843-2.247-3.914-2.885-6.053-1.245-4.308-1.328-8.77-1.268-13.105.092-4.331.09-8.639-.104-12.947-.203-4.3-.551-8.607-1.373-12.796-.791-4.174-2.487-8.188-3.374-12.54-.217-1.084-.388-2.196-.462-3.305l-.107-3.271c-.054-2.176-.159-4.372-.171-6.529.031-4.291-.304-8.586-1.003-12.823-.639-4.235-2.023-8.373-2.456-12.792-.105-1.1-.148-2.21-.109-3.319l.176-3.256c.122-2.159.228-4.313.224-6.461.023-4.29-.53-8.584-2.07-12.573-1.514-3.975-4.039-7.592-7.46-10.135-1.703-1.263-3.6-2.285-5.633-2.894-2.028-.619-4.176-.851-6.319-.959-1.075-.049-2.154-.064-3.236-.072-.544-.014-1.068.019-1.657-.046-.601-.056-1.169-.398-1.573-.779-1.48-1.62-3.224-2.814-5.126-3.864-1.875-1.062-3.846-2.021-5.576-3.363-1.718-1.315-3.264-3.03-3.873-5.158l.146-.05Z" fill="#b88321"/></g><g><path d="M231.306,263.695c-.96-.989-2.038-1.798-3.208-2.407-1.226-.569-2.449-1.099-3.677-1.84-1.187-.752-2.318-1.75-2.946-3.09-.635-1.296-.711-2.931.027-4.125-.368,1.34-.006,2.682.642,3.77.666,1.085,1.677,1.936,2.793,2.624.554.363,1.136.661,1.745.99.603.341,1.214.668,1.804,1.025c1.189.765,2.167,1.842,2.82,3.053Z" fill="#b88321"/></g><g><path d="M226.558,266.345c-.542.497-1.231.821-1.937,1.022-.708.207-1.439.284-2.157.315-.712.022-1.449-.037-2.102-.073-.676-.024-1.374.012-2.108-.014.634-.365,1.321-.619,2.054-.742.754-.122,1.43-.102,2.127-.141.691-.011,1.37-.043,2.05-.088.68-.053,1.352-.144,2.073-.279Z" fill="#b88321"/></g></g><g><path d="M184.884,202.576c-.344-3.03-.468-6.108-.168-9.171.292-3.055,1.023-6.107,2.295-8.914c2.48-5.645,6.501-10.298,8.795-15.821.563-1.378,1.027-2.794,1.369-4.243.337-1.457.581-2.941.775-4.432.386-2.983.547-6,.708-9.014l.149.005c-.048,3.018-.093,6.043-.368,9.063-.139,1.51-.329,3.017-.615,4.514-.284,1.507-.749,2.972-1.29,4.402-2.258,5.717-6.137,10.521-8.469,15.986-2.411,5.439-2.618,11.575-1.874,17.472" fill="#b88321"/></g><g><path d="M218.259,246.69c-.372-1.304-.686-2.619-.99-3.937-.306-1.317-.563-2.644-.846-3.965-.24-1.33-.503-2.656-.722-3.99-.218-1.334-.427-2.67-.576-4.018.373,1.304.686,2.619.991,3.937.304,1.317.563,2.644.845,3.965.239,1.33.504,2.655.721,3.99.218,1.334.427,2.67.577,4.018Z" fill="#b88321"/></g><g><path d="M217.219,246.244c-.204-.44-.349-.896-.486-1.353-.143-.457-.244-.923-.344-1.389-.088-.469-.174-.938-.219-1.414-.05-.475-.092-.951-.073-1.436.206.447.352.903.488,1.36.142.456.243.919.342,1.382.086.466.173.932.217,1.407.05.474.092.951.075,1.443Z" fill="#b88321"/></g><g><path d="M188.849,154.55c.779-.149,1.577-.259,2.416.069.204.092.418.256.527.504.117.245.102.536.013.767-.181.482-.633.751-1.014.902-.76.268-1.629.489-2.471.158-.415-.16-.756-.514-.899-.917-.139-.4-.079-.911.257-1.155-.231.333-.19.742-.006,1.045.173.316.455.541.79.621.673.178,1.433-.014,2.124-.272.687-.201,1.09-.921.475-1.275-.283-.183-.666-.255-1.047-.315-.381-.078-.769-.104-1.165-.132Z" fill="#b88321"/></g><g><path d="M189.87,155.709c-.191.125-.423.206-.669.216-.115.009-.272.027-.404-.135-.109-.136-.044-.39.083-.474.243-.163.494-.208.757-.129.12.042.231.108.307.208.095.108.016.254-.074.314Zm0,0c.085-.077.133-.211.042-.288-.083-.07-.199-.092-.303-.097-.191.005-.424.101-.55.206-.115.071-.091.215.156.256.213.073.452.035.655-.077Z" fill="#b88321"/></g></g><g><path d="M187.607,166.241c-.193.621-.454,1.245-.969,1.738-.245.252-.607.424-.945.503-.339.072-.553.13-.73.324-.379.363-.536,1.073-1.048,1.585-.484.503-1.16.801-1.821.778.619-.204,1.146-.572,1.499-1.053.361-.46.452-1.118.981-1.699.271-.294.72-.407,1.01-.443.296-.043.538-.153.785-.32.484-.343.847-.892,1.238-1.413Z" fill="#b88321"/></g><g><path d="M178.355,181.817c-1.443-.155-2.831-.72-4.094-1.447-1.275-.72-2.415-1.632-3.521-2.552l-3.236-2.815c-1.084-.92-2.215-1.775-3.448-2.526c1.382.44,2.651,1.193,3.835,2.024c1.193.827,2.283,1.773,3.38,2.688c1.085.929,2.178,1.83,3.327,2.648c1.154.81,2.397,1.493,3.757,1.98Z" fill="#b88321"/><path d="M178.355,181.817c-1.443-.155-2.831-.72-4.094-1.447-1.275-.72-2.415-1.632-3.521-2.552l-3.236-2.815c-1.084-.92-2.215-1.775-3.448-2.526c1.382.44,2.651,1.193,3.835,2.024c1.193.827,2.283,1.773,3.38,2.688c1.085.929,2.178,1.83,3.327,2.648c1.154.81,2.397,1.493,3.757,1.98Z" transform="matrix(1 0 0-1-29 354.293992)" fill="#b88321"/></g><g><path d="M207.953,193.108c1.137,1.081,2.123,2.241,2.96,3.583.398.679.742,1.415.906,2.212.176.791.119,1.649-.212,2.364.023-1.575-.641-2.872-1.402-4.154-.372-.647-.799-1.272-1.188-1.939-.397-.658-.752-1.347-1.064-2.066Z" fill="#b88321"/></g><g><path d="M218.598,253.078c-.19.01-.341-.008-.488-.021-.149-.006-.281-.038-.417-.057-.134-.032-.268-.053-.408-.103-.141-.044-.287-.084-.46-.166.13-.143.293-.213.461-.257.169-.05.344-.04.513-.013.167.04.333.096.47.207.138.103.262.229.329.41Z" fill="#b88321"/></g><g><path d="M199.466,137.198c.447,2.466.738,4.971.689,7.506-.032,2.527-.451,5.102-1.482,7.471-1.022,2.37-2.675,4.456-4.713,6.005-1.025.767-2.133,1.417-3.299,1.921-1.183.464-2.409.816-3.659.945c2.418-.663,4.637-1.848,6.489-3.445c1.833-1.61,3.353-3.577,4.295-5.812.992-2.219,1.423-4.663,1.628-7.12.109-1.232.129-2.475.114-3.72.017-1.248-.043-2.496-.062-3.751Z" fill="#b88321"/></g><g><path d="M201.388,188.758c1.367.71,2.702,1.318,4.116,1.741c1.409.439,2.855.683,4.385.862-1.494.417-3.114.304-4.605-.145-1.485-.464-2.89-1.277-3.896-2.458Z" fill="#b88321"/></g><g><path d="M186.368,173.729c-.076.795-.557,1.528-1.184,2.032-.634.496-1.458.797-2.249.688.735-.285,1.371-.624,1.939-1.079.574-.448,1.049-.99,1.494-1.641Z" fill="#b88321"/></g><g><path d="M116.974,166.992c.708,1.112,1.822,2.019,3.142,2.493-1.383-.232-2.724-.941-3.734-2.032l.592-.461Z" fill="#b88321"/></g><g><path d="M196.476,168.885c-.947,1.164-2.359,1.834-3.746,1.872c1.358-.286,2.516-1.175,3.127-2.295l.619.423Z" fill="#b88321"/></g><g><path d="M153.765,201.157c-1.255.334-2.563.417-3.856.359-1.292-.076-2.584-.295-3.797-.759c1.294.08,2.554.202,3.824.26c1.268.076,2.534.086,3.829.14Z" fill="#b88321"/></g><g><path d="M159.035,200.995c1.545.112,3.06.191,4.581.134c1.521-.039,3.028-.211,4.564-.418-1.437.587-2.994.861-4.548.918-1.555.038-3.126-.139-4.597-.634Z" fill="#b88321"/></g></g><g transform="translate(93.2775 1.19319)"><g><g><path d="M143.439,92.582c1.167,1.804,2.727,3.263,4.294,4.712c1.557,1.43,3.181,2.92,5.225,3.524c2.036.605,4.199.365,6.309.181c1.051-.093,2.08-.332,2.834-1.039.758-.683,1.403-1.564,2.106-2.363l4.13-4.892c1.351-1.631,2.567-3.36,3.149-5.347.612-1.981.773-4.101,1.051-6.224l.768-6.355c.465-4.222.841-8.497.902-12.706-.001-2.094-.195-4.178-.834-6.108-.625-1.903-1.783-3.655-3.334-4.86-.794-.61-1.613-1.017-2.612-1.325-.49-.162-1.022-.311-1.574-.543-.544-.22-1.095-.565-1.525-.865l-5.307-3.556c-.873-.561-1.745-1.056-2.657-1.351-.919-.298-1.89-.45-2.862-.438-1.945.023-3.882.676-5.381,1.86l-.681.538-.605-.64c-1.532-1.622-4.2-2.174-6.23-1.308-2.047.843-3.479,3.13-3.414,5.319l.078,2.628-1.752-1.784c-.354-.361-1.428-.176-1.921.448-.583.659-.841,1.744-.947,2.897-.108,1.144-.062,2.251.343,3.122.383.842,1.249,1.508,2.023,1.47l1.779-.088-.972,1.49c-.241.369-.286.824-.062,1.366.215.53.641,1.046,1.144,1.443.257.195.526.36.813.493.306.154.862.322,1.279.911.383.588.359,1.156.348,1.573l-.086,1.172c-.24,3.06-.583,6.114-.022,9.044.293,1.466.8,2.947,1.015,4.513.177,1.573.181,3.092.316,4.622.121,1.523.297,3.045.716,4.506.407,1.464,1.091,2.843,2.156,3.96Zm-.156.125c-1.098-1.083-1.865-2.51-2.32-3.989-.472-1.484-.694-3.027-.86-4.559-.164-1.527-.244-3.087-.505-4.557-.284-1.472-.858-2.889-1.255-4.416-.768-3.104-.58-6.27-.519-9.323.016-.736.065-1.682-.11-1.771-.034-.056-.247-.168-.636-.31-.418-.175-.814-.4-1.177-.66-.715-.533-1.34-1.204-1.742-2.086-.422-.848-.473-2.109.139-3.045l.807,1.402c-.858.056-1.686-.236-2.331-.683-.651-.45-1.162-1.047-1.52-1.742-.698-1.379-.729-2.859-.611-4.166.126-1.285.352-2.78,1.403-4.041.55-.646,1.298-1.091,2.125-1.277.814-.19,1.841-.088,2.627.535l-1.674.844c-.101-3.126,1.843-6.065,4.709-7.256c2.887-1.159,6.299-.388,8.399,1.874l-1.285-.102c1.889-1.434,4.226-2.16,6.551-2.149c1.163.007,2.327.208,3.431.59c1.117.387,2.105.982,3.015,1.589l5.278,3.666c.824.634,1.606.904,2.69,1.253c1.04.329,2.16.889,3.043,1.608c1.806,1.45,3.065,3.445,3.744,5.599.676,2.146.84,4.376.811,6.544-.125,4.332-.562,8.574-1.091,12.833l-.859,6.355c-.297,2.101-.524,4.269-1.23,6.365-.686,2.123-2.042,3.928-3.449,5.533l-4.269,4.785c-.729.782-1.372,1.625-2.221,2.354-.856.76-2.035,1.004-3.092,1.067-2.118.136-4.325.337-6.412-.332-2.082-.682-3.738-2.156-5.292-3.598-1.56-1.442-3.151-2.937-4.312-4.734Z" fill="#b88321"/></g><path d="M172.865,82.614c.82-6.34,1.435-10.508,1.844-16.888.231-3.615.377-7.361-.94-10.735-.984-2.461-2.89-4.741-5.421-5.697-1.368-.517-2.164-.599-3.335-1.408-1.52-1.049-3.048-2.085-4.573-3.128-.997-.682-2.002-1.368-3.109-1.852-3.165-1.384-7.07-.895-9.797,1.227-1.811-1.941-4.861-2.604-7.315-1.591s-4.147,3.635-4.062,6.288c-.951-.752-2.446-.384-3.264.51s-1.101,2.151-1.228,3.356c-.134,1.269-.121,2.6.415,3.758s1.705,2.096,2.979,2.032c-1.057,1.626.533,3.778,2.318,4.538.339.144.705.277.936.563.296.366.293.882.273,1.351-.173,3.993-1.179,8.383,1.067,11.904.208-3.795.416-7.59.624-11.386c2.696,1.025,6.089-.924,6.562-3.77c1.09.567,2.229,1.148,3.457,1.184c1.229.036,2.572-.645,2.876-1.836c1.99,1.707,4.903,2.032,7.436,1.359c2.534-.673,4.747-2.22,6.735-3.928.096,2.238,1.506,4.372,3.528,5.336.324.155.677.293.895.578.245.32.266.754.276,1.157.114,4.509.228,9.018.341,13.527l.482,3.551Z" transform="translate(-.007501 0)" fill="#b88321"/><path d="M173.769,54.991c-.984-2.461-2.89-4.741-5.421-5.697-1.368-.517-2.164-.599-3.335-1.408-1.52-1.049-3.048-2.085-4.573-3.128-.997-.682-2.002-1.368-3.109-1.852-3.165-1.384-7.07-.895-9.797,1.227-1.811-1.941-4.861-2.604-7.315-1.591s-4.147,3.635-4.062,6.288c-.951-.752-2.446-.384-3.264.51s-1.101,2.151-1.228,3.356c-.134,1.269-.121,2.6.415,3.758s1.705,2.096,2.979,2.032c-1.057,1.626.533,3.778,2.318,4.538.339.144.705.277.936.563.296.366,8.053.945,8.526-1.901c1.09.567,2.229,1.148,3.457,1.184c1.229.036,2.572-.645,2.876-1.836c1.99,1.707,4.903,2.032,7.436,1.359c2.534-.673,4.747-2.22,6.735-3.928" transform="matrix(-1 0 0 1 312.666-.272568)" fill="#b88321"/><g transform="translate(.000001 0.000001)"><path d="M148.75,71.141c.276-.022.552-.044.829-.066.698-.056,1.5-.074,1.98.435.22.233.334.543.443.844.056.154.112.322.06.477-.108.324-4.207-.005-4.816.041-.424.032-3.827.552-3.787.97-.097-.999.679-1.787,1.543-2.152.723-.305,1.521-.371,2.303-.434.482-.039.963-.077,1.445-.115Z" fill="#b88321"/><path d="M162.897,71.141c-.276-.022-.553-.044-.829-.066-.698-.056-1.5-.074-1.98.435-.22.233-.334.543-.443.844-.056.154-.112.322-.06.477.108.324,4.207-.005,4.816.041.424.032,3.827.552,3.787.97.097-.999-.679-1.787-1.543-2.152-.723-.305-1.521-.371-2.303-.434-.482-.039-.964-.077-1.445-.115Z" fill="#b88321"/><g><g><path d="M145.074,76.814c.108-.555.573-1.089,1.155-1.267.264-.092.546-.132.827-.194.281-.041.5-.037.753-.057.49.007.981.029,1.473.133.238.044.517.108.792.226.263.144.559.324.649.621l-.055.061c-.371-.313-.898-.273-1.377-.261l-1.471.043c-.494-.013-.974.023-1.456.062-.475.061-.911.327-1.228.685l-.062-.052Z" fill="#b88321"/></g><g><path d="M147.372,77.233c.072.11.172.201.282.273.247.16.557.228.844.164s.545-.267.657-.539c.152-.37.003-.832-.322-1.067-.72-.52-2.019.314-1.461,1.169Z" fill="#b88321"/><g><g><path d="M147.912,76.861c.354,0,.354-.55,0-.55-.353,0-.354.55,0,.55v0Z" fill="#b88321"/></g></g></g></g><g><g><path d="M165.879,76.867c-.317-.358-.753-.624-1.228-.685-.482-.039-.962-.075-1.456-.062l-1.471-.043c-.479-.012-1.006-.052-1.377.261l-.055-.061c.09-.298.386-.478.649-.621.276-.118.554-.181.793-.226.492-.104.983-.127,1.473-.133.253.019.472.015.753.057.281.062.563.101.827.194.582.178,1.047.712,1.155,1.267l-.063.052Z" fill="#b88321"/></g><g><path d="M163.643,77.233c-.072.11-.172.201-.282.273-.247.16-.557.228-.844.164s-.545-.267-.657-.539c-.152-.37-.003-.832.322-1.067.72-.52,2.02.314,1.461,1.169Z" fill="#b88321"/></g></g><g><path d="M153.683,75.1c.139,1.514.251,3.028.158,4.569-.112,1.528-.326,3.007-.52,4.508l-.166,1.12c-.032.192-.047.37-.036.482.014.117.038.15.11.223.153.143.531.221.891.296.361.071.724.135,1.09.189.726.1,1.491.145,2.207.11.34-.007.614-.181.74-.519.123-.33.132-.718.125-1.096.093.368.168.753.084,1.158-.053.413-.462.796-.887.857-.789.126-1.545.148-2.326.123-.388-.014-.776-.047-1.16-.11-.372-.075-.785-.074-1.249-.394-.23-.157-.4-.484-.417-.745-.027-.265,0-.466.025-.648l.148-1.129c.214-1.499.453-3.014.711-4.49.222-1.473.272-2.993.472-4.504Z" fill="#b88321"/></g><g><path d="M150.984,90.382c.509-.093.657-.401,1.072-.64.403-.223.828-.434,1.304-.552.473-.153.999-.196,1.545-.169.068.002.137.007.205.017.081.011.133.016.14.012l.153-.009c.111.002.245-.002.401-.012.307.002.727-.032,1.2.014.455.057.909.127,1.356.269c1.03.196,1.364.756,2.396.993l.105.17c-.37.246-.811.352-1.239.393-.436.024-.847.011-1.261.031l-1.241.032-1.255.096c-.419.019-.892-.044-1.28-.138-.397-.074-.805-.104-1.215-.106-.411-.003-.825.019-1.242.04-.403.006-.906.042-1.275-.291l.131-.15Z" fill="#b88321"/></g><g><path d="M153.992,93.099c.616.029,1.229.074,1.847.056l1.851.046.002.055c-.303.189-.613.277-.924.349-.311.074-.624.064-.937.1-.313-.044-.62-.028-.939-.131-.314-.096-.624-.207-.907-.419l.007-.056Z" fill="#b88321"/></g></g><g><path d="M169.28,92.506c-.838,1.676-1.957,3.176-3.159,4.577-1.217,1.387-2.449,2.76-3.847,3.98-1.394,1.201-3.024,2.233-4.864,2.568-1.802.343-3.824.042-5.217-1.203c1.424,1.209,3.428,1.449,5.19,1.069c1.796-.374,3.365-1.423,4.709-2.639c1.344-1.232,2.541-2.635,3.712-4.039c1.155-1.415,2.212-2.914,2.98-4.552l.496.239Z" fill="#b88321"/></g></g><g><path d="M133.039,51.883c.112.48.253.845.46,1.198.202.356.446.66.805.999-.508.034-.985-.314-1.238-.75-.249-.437-.309-1.024-.027-1.447Z" fill="#fff"/><path d="M133.039,51.883c.112.48.253.845.46,1.198.202.356.446.66.805.999-.508.034-.985-.314-1.238-.75-.249-.437-.309-1.024-.027-1.447Z" transform="matrix(-.017452-.999848 0.999848-.017452 122.935 194.465)" fill="#fff"/><path d="M133.313,55.959c.543.329,1.021.63,1.543.88.515.263,1.044.46,1.634.695-.621.159-1.285.029-1.856-.247-.566-.289-1.071-.738-1.321-1.328Z" fill="#fff"/><path d="M133.313,55.959c.543.329,1.021.63,1.543.88.515.263,1.044.46,1.634.695-.621.159-1.285.029-1.856-.247-.566-.289-1.071-.738-1.321-1.328Z" transform="matrix(.642788-.766044 0.766044 0.642788 47.6917 122.623)" fill="#fff"/><path d="M136.71,55.273c.427.109.758.246,1.109.369.346.137.684.252,1.078.451-.401.194-.855.158-1.253.017-.393-.157-.759-.428-.934-.837Z" fill="#fff"/><path d="M136.71,55.273c.427.109.758.246,1.109.369.346.137.684.252,1.078.451-.401.194-.855.158-1.253.017-.393-.157-.759-.428-.934-.837Z" transform="matrix(.5-.866025 0.866025 0.5 55.6207 147.216)" fill="#fff"/><path d="M136.896,60.307c.416.396.856.579,1.337.704.48.133,1.011.16,1.568.333-.53.217-1.108.29-1.692.152-.565-.143-1.148-.585-1.213-1.189Z" fill="#fff"/><path d="M141.528,63.371c.487-.17.949-.196,1.373-.291.429-.085.816-.198,1.257-.451-.133.517-.664.843-1.16.941-.512.091-1.01.018-1.47-.199Z" fill="#fff"/><path d="M141.618,59.162l1.94.769c-.342.237-.786.224-1.156.084-.364-.152-.696-.446-.784-.853Z" fill="#fff"/><path d="M141.618,59.162l1.94.769c-.342.237-.786.224-1.156.084-.364-.152-.696-.446-.784-.853Z" transform="matrix(.642788-.766044 0.766044 0.642788 32.2482 132.532)" fill="#fff"/><path d="M136.39,49.628c.215.35.353.635.52.924.154.296.319.565.496.937-.415-.055-.74-.352-.935-.697-.184-.352-.258-.785-.081-1.164Z" fill="#fff"/><path d="M136.39,49.628c.215.35.353.635.52.924.154.296.319.565.496.937-.415-.055-.74-.352-.935-.697-.184-.352-.258-.785-.081-1.164Z" transform="matrix(-.642788-.766044 0.766044-.642788 228.081 188.888)" fill="#fff"/><path d="M156.352,60.363c.692.296,1.345.496,2.033.575.686.09,1.368.055,2.111-.062-.59.484-1.41.648-2.173.558-.761-.1-1.516-.459-1.971-1.071Z" fill="#fff"/><path d="M147.019,59.322c.464.129.838.27,1.237.382.395.127.784.218,1.241.37-.424.241-.934.238-1.386.108-.448-.143-.873-.424-1.092-.86Z" fill="#fff"/></g></g></g></svg>
